<?xml version="1.0" encoding="utf-8"?>
<!-- Generator: Adobe Illustrator 15.0.0, SVG Export Plug-In . SVG Version: 6.00 Build 0)  -->
<!DOCTYPE svg PUBLIC "-//W3C//DTD SVG 1.1//EN" "http://www.w3.org/Graphics/SVG/1.1/DTD/svg11.dtd">
<svg version="1.1" id="图层_1" xmlns="http://www.w3.org/2000/svg" xmlns:xlink="http://www.w3.org/1999/xlink" x="0px" y="0px"
	 width="1000px" height="1000px" viewBox="0 0 1000 1000" enable-background="new 0 0 1000 1000" xml:space="preserve">
<title>Group 3</title>
<desc>Created with Sketch.</desc>
<rect id="Rectangle-2" fill="#FFFFFF" width="1000" height="1000"/>
<g id="搜索_熊掌_66icon">
	<g id="logo" transform="translate(121.212121, 90.909091)">
		<path id="Fill-1" fill="#A05500" d="M281.391,253.228c48.858,0,88.336-56.057,88.336-125.372
			c0-69.255-39.478-125.298-88.336-125.298c-48.798,0-88.381,56.043-88.381,125.298
			C193.011,197.171,232.594,253.228,281.391,253.228"/>
		<path id="Fill-3" fill="#A05500" d="M491.804,261.515c65.328,8.441,107.319-61.038,115.667-113.695
			c8.512-52.568-33.629-113.681-79.854-124.18c-46.345-10.588-104.193,63.395-109.459,111.638
			C411.861,194.243,426.641,253.134,491.804,261.515"/>
		<path id="Fill-5" fill="#A05500" d="M117.174,429.983c88.456-18.954,76.429-124.343,73.78-147.398
			c-4.354-35.522-46.255-97.575-103.161-92.684C16.197,196.298,5.741,299.405,5.741,299.405
			C-3.953,347.082,28.913,448.937,117.174,429.983"/>
		<path id="Fill-7" fill="#A05500" d="M750.703,349.929c0-25.173-20.974-101.049-98.838-101.049
			c-78.014,0-88.426,71.597-88.426,122.21c0,48.318,4.084,115.754,100.962,113.606C761.309,482.579,750.703,375.266,750.703,349.929
			"/>
		<path id="Fill-9" fill="#A05500" d="M211.109,613.307c-2.588,7.411-8.378,26.366-3.381,42.874
			c9.903,37.014,42.155,38.685,42.155,38.685h46.315V581.96h-49.621C224.288,588.596,213.517,605.88,211.109,613.307"/>
		<path id="Fill-11" fill="#A05500" d="M563.359,739.47H431.027c-51.267-13.184-53.705-49.496-53.705-49.496V544.067l53.705-0.865
			v131.144c3.276,13.959,20.704,16.494,20.704,16.494h54.542V544.067h57.086V739.47z M349.169,740.26H234.19
			c-49.666-9.857-69.442-43.665-71.956-49.421c-2.468-5.847-16.515-33.003-9.065-79.188c21.467-69.24,82.681-74.222,82.681-74.222
			h61.215v-74.997l52.104,0.791V740.26z M651.859,571.073c0,0-101.052-77.935-160.052-162.162
			c-79.943-124.195-193.546-73.655-231.528-10.499c-37.817,63.156-96.773,103.107-105.18,113.681
			c-8.467,10.424-122.024,71.522-96.818,183.16c25.207,111.578,113.737,109.415,113.737,109.415s65.253,6.413,140.979-10.483
			c75.695-16.732,140.918,4.176,140.918,4.176s176.882,59.055,225.261-54.641C727.54,630.039,651.859,571.073,651.859,571.073
			L651.859,571.073z"/>
	</g>
</g>
</svg>
